<?xml version="1.0" encoding="UTF-8"?>
<svg xmlns="http://www.w3.org/2000/svg" xmlns:xlink="http://www.w3.org/1999/xlink" width="128px" height="128px" viewBox="0 0 128 128" version="1.1">
<g id="surface1">
<path style=" stroke:none;fill-rule:nonzero;fill:rgb(24.705882%,31.764707%,70.980394%);fill-opacity:1;" d="M 64 0 C 28.699219 0 0 28.699219 0 64 C 0 99.300781 28.699219 128 64 128 C 99.300781 128 128 99.300781 128 64 C 128 28.699219 99.300781 0 64 0 Z M 64 10.675781 C 93.523438 10.675781 117.324219 34.5 117.324219 64 C 117.324219 93.5 93.523438 117.324219 64 117.324219 C 34.476562 117.324219 10.675781 93.523438 10.675781 64 C 10.675781 34.476562 34.476562 10.675781 64 10.675781 Z M 58.675781 21.324219 L 58.675781 69.324219 L 96 69.324219 L 96 58.648438 L 69.324219 58.648438 L 69.324219 21.324219 Z M 58.675781 21.324219 "/>
</g>
</svg>
